<?xml version="1.0" encoding="UTF-8"?>
<svg width="201px" height="65px" viewBox="0 0 201 65" version="1.1" xmlns="http://www.w3.org/2000/svg" xmlns:xlink="http://www.w3.org/1999/xlink">
    <title>Mid-LifeTechCrisis</title>
    <g id="Page-1" stroke="none" stroke-width="1" fill="none" fill-rule="evenodd">
        <g id="Artboard" transform="translate(-410.000000, -180.000000)" fill="#000000" fill-rule="nonzero">
            <path d="M415.435404,207.731899 L415.435404,187.935461 L415.689857,187.935461 L423.83235,207.731899 L426.682223,207.731899 L434.824717,187.935461 L435.07917,187.935461 L435.07917,207.731899 L438.030824,207.731899 L438.030824,181.67592 L434.26492,181.67592 L425.409958,203.304418 L425.104615,203.304418 L416.249653,181.67592 L412.48375,181.67592 L412.48375,207.731899 L415.435404,207.731899 Z M445.460849,184.932917 C446.046091,184.932917 446.548635,184.733595 446.968483,184.334953 C447.38833,183.93631 447.598254,183.45709 447.598254,182.897294 C447.598254,182.337497 447.38833,181.858277 446.968483,181.459635 C446.548635,181.060992 446.046091,180.86167 445.460849,180.86167 C444.875607,180.86167 444.373063,181.060992 443.953215,181.459635 C443.533368,181.858277 443.323444,182.337497 443.323444,182.897294 C443.323444,183.45709 443.533368,183.93631 443.953215,184.334953 C444.373063,184.733595 444.875607,184.932917 445.460849,184.932917 Z M446.936676,207.731899 L446.936676,188.189914 L443.934131,188.189914 L443.934131,207.731899 L446.936676,207.731899 Z M459.811994,208.139024 C461.067295,208.139024 462.072384,207.9291 462.827261,207.509253 C463.582138,207.089406 464.163139,206.610186 464.570264,206.071594 C464.977388,205.533002 465.291214,205.085589 465.51174,204.729355 L465.51174,204.729355 L465.867974,204.729355 L465.867974,207.731899 L468.768737,207.731899 L468.768737,181.67592 L465.766192,181.67592 L465.766192,191.29424 L465.51174,191.29424 C465.291214,190.95497 464.98375,190.520279 464.589348,189.990169 C464.194946,189.460059 463.626667,188.98508 462.884513,188.565232 C462.142359,188.145385 461.135149,187.935461 459.862885,187.935461 C458.217422,187.935461 456.767041,188.346827 455.51174,189.169558 C454.256438,189.992289 453.276795,191.158532 452.572808,192.668286 C451.868822,194.17804 451.516829,195.95921 451.516829,198.011797 C451.516829,200.081348 451.868822,201.873121 452.572808,203.387115 C453.276795,204.90111 454.252198,206.071594 455.499017,206.898566 C456.745836,207.725538 458.183495,208.139024 459.811994,208.139024 Z M460.219119,205.441823 C458.963818,205.441823 457.914199,205.108914 457.070264,204.443095 C456.226328,203.777277 455.590196,202.87821 455.161867,201.745894 C454.733538,200.613579 454.519373,199.351916 454.519373,197.960907 C454.519373,196.586861 454.729297,195.346403 455.149144,194.239533 C455.568991,193.132663 456.200883,192.2548 457.044818,191.605945 C457.888754,190.95709 458.946854,190.632663 460.219119,190.632663 C461.440493,190.632663 462.466786,190.940126 463.297999,191.555054 C464.129212,192.169982 464.756863,193.02664 465.180951,194.125029 C465.605039,195.223417 465.817083,196.502043 465.817083,197.960907 C465.817083,199.436734 465.600798,200.736564 465.168228,201.860398 C464.735658,202.984232 464.103767,203.862094 463.272554,204.493986 C462.441341,205.125877 461.423529,205.441823 460.219119,205.441823 Z M485.867974,197.960907 L485.867974,195.161925 L474.468483,195.161925 L474.468483,197.960907 L485.867974,197.960907 Z M506.834895,207.731899 L506.834895,204.932917 L494.722935,204.932917 L494.722935,181.67592 L491.567719,181.67592 L491.567719,207.731899 L506.834895,207.731899 Z M512.839984,184.932917 C513.425226,184.932917 513.92777,184.733595 514.347617,184.334953 C514.767465,183.93631 514.977388,183.45709 514.977388,182.897294 C514.977388,182.337497 514.767465,181.858277 514.347617,181.459635 C513.92777,181.060992 513.425226,180.86167 512.839984,180.86167 C512.254742,180.86167 511.752198,181.060992 511.33235,181.459635 C510.912503,181.858277 510.702579,182.337497 510.702579,182.897294 C510.702579,183.45709 510.912503,183.93631 511.33235,184.334953 C511.752198,184.733595 512.254742,184.932917 512.839984,184.932917 Z M514.315811,207.731899 L514.315811,188.189914 L511.313266,188.189914 L511.313266,207.731899 L514.315811,207.731899 Z M524.137694,207.731899 L524.137558,190.734987 L528.514284,190.734444 L528.514284,188.189914 L524.137558,188.190525 L524.137694,186.205182 C524.137694,185.307326 524.326013,184.610588 524.702651,184.114968 L524.79291,184.004164 C525.229721,183.50374 525.94431,183.253528 526.936676,183.253528 C527.369246,183.253528 527.719119,183.291696 527.986294,183.368031 C528.25347,183.444367 528.463393,183.507981 528.616065,183.558871 L528.616065,183.558871 L529.481205,180.963451 C529.252198,180.86167 528.904445,180.751407 528.437948,180.632663 C527.971451,180.513918 527.369246,180.454545 526.631332,180.454545 C525.698338,180.454545 524.811994,180.641144 523.972299,181.014342 C523.132605,181.38754 522.449823,181.947336 521.923953,182.693731 C521.398084,183.440126 521.135149,184.373121 521.135149,185.492713 L521.135149,185.492713 L521.13481,188.190525 L517.979933,188.189914 L517.979933,190.734444 L521.13481,190.734987 L521.135149,207.731899 L524.137694,207.731899 Z M540.117337,208.139024 C541.440493,208.139024 542.632181,207.933341 543.692401,207.521975 C544.752622,207.11061 545.643207,206.53385 546.364157,205.791696 C547.085107,205.049541 547.598254,204.186522 547.903597,203.202637 L547.903597,203.202637 L545.002834,202.388388 C544.748381,203.066929 544.387906,203.633087 543.921409,204.086861 C543.454912,204.540635 542.901477,204.879906 542.261103,205.104673 C541.62073,205.329439 540.906142,205.441823 540.117337,205.441823 C538.904445,205.441823 537.839984,205.176768 536.923953,204.646657 C536.007923,204.116547 535.293334,203.340466 534.780187,202.318413 C534.340347,201.442368 534.08901,200.39963 534.026176,199.1902 L534.017592,198.978922 L548.208941,198.978718 L548.208941,197.706454 C548.208941,195.882875 547.96721,194.347675 547.48375,193.100856 C547.000289,191.854037 546.351434,190.851068 545.537185,190.09195 C544.722935,189.332832 543.819628,188.783638 542.827261,188.444367 C541.834895,188.105097 540.829806,187.935461 539.811994,187.935461 C538.047787,187.935461 536.506226,188.365911 535.187312,189.22681 C533.868398,190.087709 532.842104,191.283638 532.108432,192.814596 C531.374759,194.345555 531.007923,196.111882 531.007923,198.113579 C531.007923,200.115275 531.374759,201.86888 532.108432,203.374393 C532.842104,204.879906 533.889602,206.050389 535.250925,206.885843 C536.612248,207.721297 538.234386,208.139024 540.117337,208.139024 Z M534.029905,196.308376 C534.094696,195.429571 534.321465,194.597887 534.710213,193.813324 C535.17671,192.871848 535.844649,192.106369 536.71403,191.516886 C537.58341,190.927404 538.616065,190.632663 539.811994,190.632663 C540.89766,190.632663 541.841256,190.882875 542.642783,191.383299 C543.44431,191.883723 544.063478,192.566505 544.500289,193.431645 C544.9371,194.296785 545.155505,195.280669 545.155505,196.383299 L545.155505,196.383299 L534.025056,196.383706 L534.029905,196.308376 Z M425.104615,244.305266 L425.104615,223.949032 L432.941765,223.949032 L432.941765,218.249287 L410.295455,218.249287 L410.295455,223.949032 L418.132605,223.949032 L418.132605,244.305266 L425.104615,244.305266 Z M442.203851,244.661501 C444.010467,244.661501 445.590196,244.387964 446.943037,243.84089 C448.295879,243.293816 449.383665,242.521975 450.206396,241.525368 C451.029127,240.528761 451.550756,239.351916 451.771282,237.994834 L451.771282,237.994834 L445.359068,237.994834 C445.22336,238.35955 445.011315,238.671255 444.722935,238.929948 C444.434555,239.188642 444.088924,239.385843 443.68604,239.521551 C443.283156,239.65726 442.839984,239.725114 442.356523,239.725114 C441.661019,239.725114 441.067295,239.585165 440.575353,239.305266 C440.08341,239.025368 439.705972,238.639448 439.443037,238.147506 C439.180103,237.655563 439.048635,237.095767 439.048635,236.468116 L439.048635,236.468116 L439.048499,236.162841 L451.771282,236.162773 L451.771282,234.534274 C451.771282,232.982111 451.542274,231.586861 451.084259,230.348523 C450.626243,229.110186 449.973148,228.056327 449.124971,227.186946 C448.276795,226.317565 447.254742,225.653867 446.058813,225.195852 C444.862885,224.737836 443.527007,224.508829 442.05118,224.508829 C440.03252,224.508829 438.281036,224.928676 436.796727,225.768371 C435.312418,226.608065 434.163139,227.78279 433.34889,229.292544 C432.53464,230.802298 432.127516,232.566505 432.127516,234.585165 C432.127516,236.688642 432.53252,238.493137 433.342528,239.998651 C434.152537,241.504164 435.310298,242.657684 436.815811,243.45921 C438.321324,244.260737 440.117337,244.661501 442.203851,244.661501 Z M439.048635,232.295088 C439.065599,231.72681 439.21615,231.230627 439.500289,230.806539 C439.784428,230.38245 440.163987,230.049541 440.638966,229.807811 C441.113945,229.566081 441.635573,229.445216 442.203851,229.445216 C442.789093,229.445216 443.312842,229.566081 443.775098,229.807811 C444.237354,230.049541 444.606311,230.384571 444.881969,230.8129 C445.157626,231.241229 445.299695,231.735292 445.308177,232.295088 L445.308177,232.295088 L439.048635,232.295088 Z M464.035913,244.661501 C465.969755,244.661501 467.634301,244.313748 469.029551,243.618244 C470.424801,242.922739 471.504106,241.936734 472.267465,240.660228 C473.030824,239.383723 473.425226,237.884571 473.450671,236.162773 L473.450671,236.162773 L466.936676,236.162773 C466.885785,236.841314 466.735234,237.415953 466.485022,237.886691 C466.23481,238.357429 465.910382,238.713663 465.51174,238.955394 C465.113097,239.197124 464.655081,239.317989 464.137694,239.317989 C463.527007,239.317989 462.992656,239.141992 462.53464,238.789999 C462.076625,238.438006 461.720391,237.907896 461.465938,237.199668 C461.211485,236.491441 461.084259,235.602976 461.084259,234.534274 C461.084259,233.465572 461.211485,232.577107 461.465938,231.86888 C461.720391,231.160652 462.076625,230.630542 462.53464,230.278549 C462.992656,229.926556 463.527007,229.750559 464.137694,229.750559 C464.918016,229.750559 465.556269,230.019855 466.052452,230.558447 C466.548635,231.097039 466.843377,231.879482 466.936676,232.905775 L466.936676,232.905775 L473.450671,232.905775 C473.442189,231.209422 473.052028,229.731475 472.280187,228.471933 C471.508347,227.212391 470.420561,226.236988 469.016829,225.545724 C467.613097,224.854461 465.952791,224.508829 464.035913,224.508829 C461.915472,224.508829 460.100374,224.930797 458.59062,225.774732 C457.080866,226.618668 455.923105,227.797633 455.117337,229.311628 C454.31157,230.825623 453.908686,232.583468 453.908686,234.585165 C453.908686,236.586861 454.31157,238.344707 455.117337,239.858702 C455.923105,241.372696 457.080866,242.551662 458.59062,243.395597 C460.100374,244.239533 461.915472,244.661501 464.035913,244.661501 Z M483.374335,244.305266 L483.374335,233.3129 C483.382817,232.668286 483.503682,232.114851 483.73693,231.652595 C483.970179,231.190338 484.300968,230.834104 484.729297,230.583892 C485.157626,230.33368 485.65593,230.208574 486.224208,230.208574 C487.123275,230.208574 487.816659,230.484232 488.30436,231.035546 C488.792062,231.586861 489.031672,232.345979 489.02319,233.3129 L489.02319,233.3129 L489.02319,244.305266 L496.046279,244.305266 L496.046279,231.837073 C496.054572,230.412137 495.776795,229.148354 495.212757,228.045724 C494.64872,226.943095 493.855675,226.077955 492.833622,225.450305 C491.81157,224.822654 490.60928,224.508829 489.226752,224.508829 C487.784852,224.508829 486.550756,224.858702 485.524462,225.558447 C484.498169,226.258193 483.764496,227.231475 483.323444,228.478294 L483.323444,228.478294 L483.119882,228.478294 L483.119882,218.249287 L476.351434,218.249287 L476.351434,244.305266 L483.374335,244.305266 Z M518.997745,244.661501 C520.906142,244.661501 522.58129,244.36888 524.02319,243.783638 C525.46509,243.198396 526.675862,242.424435 527.655505,241.461755 C528.635149,240.499075 529.392147,239.447336 529.926498,238.306539 C530.460849,237.165741 530.770433,236.044028 530.855251,234.941399 L530.855251,234.941399 L523.679678,234.890508 C523.594861,235.450305 523.431587,235.952849 523.189857,236.398142 C522.948126,236.843434 522.636421,237.222993 522.254742,237.536819 C521.873063,237.850644 521.423529,238.090254 520.906142,238.255648 C520.388754,238.421042 519.803512,238.50374 519.150416,238.50374 C518.005378,238.50374 517.025734,238.234444 516.211485,237.695852 C515.397236,237.15726 514.775946,236.351492 514.347617,235.278549 C513.919288,234.205606 513.705124,232.871848 513.705124,231.277277 C513.705124,229.767523 513.915047,228.474054 514.334895,227.396869 C514.754742,226.319685 515.373911,225.492713 516.192401,224.915953 C517.010891,224.339193 518.01386,224.050813 519.201307,224.050813 C519.879848,224.050813 520.486294,224.146233 521.020645,224.337073 C521.554997,224.527913 522.010891,224.799329 522.38833,225.151322 C522.765768,225.503316 523.06263,225.921042 523.278915,226.404503 C523.4952,226.887964 523.628788,227.426556 523.679678,228.020279 L523.679678,228.020279 L530.855251,228.020279 C530.719543,226.400262 530.333622,224.962603 529.69749,223.707302 C529.061358,222.452001 528.221663,221.393901 527.178406,220.533002 C526.135149,219.672103 524.922257,219.016886 523.539729,218.567353 C522.157202,218.117819 520.643207,217.893053 518.997745,217.893053 C516.656778,217.893053 514.536337,218.404079 512.636421,219.426132 C510.736506,220.448184 509.226752,221.953697 508.107159,223.942671 C506.987567,225.931645 506.42777,228.376513 506.42777,231.277277 C506.42777,234.161076 506.976964,236.599584 508.075353,238.592798 C509.173741,240.586013 510.670773,242.095767 512.566447,243.12206 C514.462121,244.148354 516.605887,244.661501 518.997745,244.661501 Z M541.18604,244.305266 L541.18604,234.127149 C541.18604,233.380754 541.342952,232.729779 541.656778,232.174223 C541.970603,231.618668 542.401053,231.186098 542.948126,230.876513 C543.4952,230.566929 544.112248,230.412137 544.799271,230.412137 C545.163987,230.412137 545.600798,230.441823 546.109704,230.501195 C546.61861,230.560568 547.046939,230.649626 547.394691,230.768371 L547.394691,230.768371 L547.394691,224.776004 C547.114793,224.691187 546.824293,224.625453 546.52319,224.578803 C546.222087,224.532154 545.918864,224.508829 545.613521,224.508829 C544.570264,224.508829 543.660594,224.826895 542.884513,225.463027 C542.108432,226.09916 541.542274,227.104249 541.18604,228.478294 L541.18604,228.478294 L540.982477,228.478294 L540.982477,224.763282 L534.163139,224.763282 L534.163139,244.305266 L541.18604,244.305266 Z M553.208941,222.727658 C554.158898,222.727658 554.971027,222.413833 555.645327,221.786182 C556.319628,221.158532 556.656778,220.403655 556.656778,219.521551 C556.656778,218.639448 556.319628,217.884571 555.645327,217.25692 C554.971027,216.62927 554.154657,216.315445 553.196218,216.315445 C552.24626,216.315445 551.432011,216.62927 550.75347,217.25692 C550.074929,217.884571 549.735658,218.639448 549.735658,219.521551 C549.735658,220.403655 550.074929,221.158532 550.75347,221.786182 C551.432011,222.413833 552.250501,222.727658 553.208941,222.727658 Z M556.707668,244.305266 L556.707668,224.763282 L549.684768,224.763282 L549.684768,244.305266 L556.707668,244.305266 Z M569.226752,244.661501 C571.033368,244.661501 572.642783,244.383723 574.054997,243.828167 C575.46721,243.272612 576.582562,242.483808 577.401053,241.461755 C578.219543,240.439702 578.633029,239.233171 578.641511,237.842162 C578.633029,236.400262 578.138966,235.248863 577.159322,234.387964 C576.179678,233.527065 574.689008,232.914257 572.687312,232.549541 L572.687312,232.549541 L568.717846,231.837073 C567.971451,231.701365 567.468907,231.510525 567.210213,231.264554 C566.951519,231.018583 566.826413,230.751407 566.834895,230.463027 C566.826413,230.055903 567.038457,229.742077 567.471027,229.521551 C567.903597,229.301026 568.420985,229.190763 569.02319,229.190763 C569.489687,229.190763 569.915896,229.269219 570.301816,229.426132 C570.687736,229.583044 571.003682,229.80569 571.249653,230.09407 C571.495624,230.38245 571.635573,230.725962 571.6695,231.124605 L571.6695,231.124605 L578.132605,231.124605 C578.047787,229.055054 577.189008,227.435037 575.556269,226.264554 C573.923529,225.09407 571.694946,224.508829 568.870518,224.508829 C567.013012,224.508829 565.407838,224.75692 564.054997,225.253104 C562.702155,225.749287 561.663139,226.470237 560.937948,227.415953 C560.212757,228.36167 559.854403,229.51307 559.862885,230.870152 C559.854403,232.405351 560.346345,233.660652 561.338712,234.636055 C562.331078,235.611458 563.823868,236.273036 565.817083,236.620788 L565.817083,236.620788 L569.277643,237.231475 C570.041002,237.367183 570.602918,237.5453 570.963393,237.765826 C571.323868,237.986352 571.508347,238.283214 571.516829,238.656411 C571.508347,239.063536 571.294182,239.377361 570.874335,239.597887 C570.454488,239.818413 569.922257,239.928676 569.277643,239.928676 C568.480357,239.928676 567.8209,239.761161 567.299271,239.426132 C566.777643,239.091102 566.470179,238.614003 566.376879,237.994834 L566.376879,237.994834 L559.404869,237.994834 C559.59995,239.99653 560.539305,241.608065 562.222935,242.829439 C563.906566,244.050813 566.241171,244.661501 569.226752,244.661501 Z M584.862885,222.727658 C585.812842,222.727658 586.624971,222.413833 587.299271,221.786182 C587.973572,221.158532 588.310722,220.403655 588.310722,219.521551 C588.310722,218.639448 587.973572,217.884571 587.299271,217.25692 C586.624971,216.62927 585.808601,216.315445 584.850162,216.315445 C583.900204,216.315445 583.085955,216.62927 582.407414,217.25692 C581.728873,217.884571 581.389602,218.639448 581.389602,219.521551 C581.389602,220.403655 581.728873,221.158532 582.407414,221.786182 C583.085955,222.413833 583.904445,222.727658 584.862885,222.727658 Z M588.361612,244.305266 L588.361612,224.763282 L581.338712,224.763282 L581.338712,244.305266 L588.361612,244.305266 Z M600.880696,244.661501 C602.687312,244.661501 604.296727,244.383723 605.708941,243.828167 C607.121154,243.272612 608.236506,242.483808 609.054997,241.461755 C609.873487,240.439702 610.286973,239.233171 610.295455,237.842162 C610.286973,236.400262 609.79291,235.248863 608.813266,234.387964 C607.833622,233.527065 606.342952,232.914257 604.341256,232.549541 L604.341256,232.549541 L600.37179,231.837073 C599.625395,231.701365 599.122851,231.510525 598.864157,231.264554 C598.605463,231.018583 598.480357,230.751407 598.488839,230.463027 C598.480357,230.055903 598.692401,229.742077 599.124971,229.521551 C599.557541,229.301026 600.074929,229.190763 600.677134,229.190763 C601.143631,229.190763 601.56984,229.269219 601.95576,229.426132 C602.34168,229.583044 602.657626,229.80569 602.903597,230.09407 C603.149568,230.38245 603.289517,230.725962 603.323444,231.124605 L603.323444,231.124605 L609.786549,231.124605 C609.701731,229.055054 608.842952,227.435037 607.210213,226.264554 C605.577473,225.09407 603.34889,224.508829 600.524462,224.508829 C598.666956,224.508829 597.061782,224.75692 595.708941,225.253104 C594.356099,225.749287 593.317083,226.470237 592.591892,227.415953 C591.866701,228.36167 591.508347,229.51307 591.516829,230.870152 C591.508347,232.405351 592.000289,233.660652 592.992656,234.636055 C593.985022,235.611458 595.477812,236.273036 597.471027,236.620788 L597.471027,236.620788 L600.931587,237.231475 C601.694946,237.367183 602.256863,237.5453 602.617337,237.765826 C602.977812,237.986352 603.162291,238.283214 603.170773,238.656411 C603.162291,239.063536 602.948126,239.377361 602.528279,239.597887 C602.108432,239.818413 601.576201,239.928676 600.931587,239.928676 C600.134301,239.928676 599.474844,239.761161 598.953215,239.426132 C598.431587,239.091102 598.124123,238.614003 598.030824,237.994834 L598.030824,237.994834 L591.058813,237.994834 C591.253894,239.99653 592.193249,241.608065 593.876879,242.829439 C595.56051,244.050813 597.895115,244.661501 600.880696,244.661501 Z" id="Mid-LifeTechCrisis"></path>
        </g>
    </g>
</svg>